<svg width="20" height="16" viewBox="0 0 20 16" fill="none" xmlns="http://www.w3.org/2000/svg">
<path d="M1.94595 16C1.40541 16 0.945946 15.8133 0.567568 15.44C0.189189 15.0667 0 14.6133 0 14.08V1.92C0 1.38667 0.189189 0.933333 0.567568 0.56C0.945946 0.186667 1.40541 0 1.94595 0H14.2432C14.8018 0 15.2703 0.186667 15.6486 0.56C16.027 0.933333 16.2162 1.38667 16.2162 1.92V6.8L19.1622 3.89333C19.3243 3.73333 19.5045 3.69316 19.7027 3.7728C19.9009 3.85316 20 4.00889 20 4.24V11.76C20 11.9911 19.9009 12.1465 19.7027 12.2261C19.5045 12.3065 19.3243 12.2667 19.1622 12.1067L16.2162 9.2V14.08C16.2162 14.6133 16.027 15.0667 15.6486 15.44C15.2703 15.8133 14.8018 16 14.2432 16H1.94595Z" fill="#099DFD"/>
</svg>
