<svg width="24" height="24" viewBox="0 0 24 24" fill="currentColor" xmlns="http://www.w3.org/2000/svg">
<path d="M6.73684 14.7236H13.0789C13.2895 14.7236 13.4695 14.6496 13.6189 14.5016C13.7677 14.3544 13.8421 14.1678 13.8421 13.942C13.8421 13.7162 13.7677 13.5294 13.6189 13.3814C13.4695 13.2341 13.2807 13.1605 13.0526 13.1605H6.71053C6.5 13.1605 6.32035 13.2341 6.17158 13.3814C6.02211 13.5294 5.94737 13.7162 5.94737 13.942C5.94737 14.1678 6.02211 14.3544 6.17158 14.5016C6.32035 14.6496 6.50877 14.7236 6.73684 14.7236ZM6.73684 11.5973H17.2895C17.5 11.5973 17.68 11.5233 17.8295 11.3753C17.9782 11.2281 18.0526 11.0415 18.0526 10.8157C18.0526 10.5899 17.9782 10.4031 17.8295 10.2551C17.68 10.1078 17.4912 10.0342 17.2632 10.0342H6.71053C6.5 10.0342 6.32035 10.1078 6.17158 10.2551C6.02211 10.4031 5.94737 10.5899 5.94737 10.8157C5.94737 11.0415 6.02211 11.2281 6.17158 11.3753C6.32035 11.5233 6.50877 11.5973 6.73684 11.5973ZM6.73684 8.47101H17.2895C17.5 8.47101 17.68 8.39703 17.8295 8.24905C17.9782 8.10176 18.0526 7.91523 18.0526 7.68944C18.0526 7.46365 17.9782 7.27712 17.8295 7.12983C17.68 6.98186 17.4912 6.90787 17.2632 6.90787H6.71053C6.5 6.90787 6.32035 6.98186 6.17158 7.12983C6.02211 7.27712 5.94737 7.46365 5.94737 7.68944C5.94737 7.91523 6.02211 8.10176 6.17158 8.24905C6.32035 8.39703 6.50877 8.47101 6.73684 8.47101ZM2 20.0383V4.87578C2 4.35473 2.18421 3.91184 2.55263 3.5471C2.92105 3.18237 3.36842 3 3.89474 3H20.1053C20.6316 3 21.0789 3.18237 21.4474 3.5471C21.8158 3.91184 22 4.35473 22 4.87578V16.7557C22 17.2767 21.8158 17.7196 21.4474 18.0844C21.0789 18.4491 20.6316 18.6315 20.1053 18.6315H5.73684L3.60526 20.7157C3.30702 21.0109 2.96491 21.0762 2.57895 20.9116C2.19298 20.7462 2 20.4551 2 20.0383Z"/>
</svg>
