<svg width="20" height="20" viewBox="0 0 20 20" fill="none" xmlns="http://www.w3.org/2000/svg">
<path d="M8.91797 12.708L13.605 8.04199L12.834 7.27099L8.91797 11.167L7.14697 9.41699L6.37597 10.188L8.91797 12.708ZM10.001 17.583C8.95964 17.583 7.97697 17.3853 7.05297 16.99C6.12964 16.594 5.32397 16.0523 4.63597 15.365C3.94864 14.677 3.40697 13.8713 3.01097 12.948C2.61564 12.024 2.41797 11.0413 2.41797 9.99999C2.41797 8.94466 2.61564 7.95866 3.01097 7.04199C3.40697 6.12533 3.94864 5.32299 4.63597 4.63499C5.32397 3.94766 6.12964 3.40599 7.05297 3.00999C7.97697 2.61466 8.95964 2.41699 10.001 2.41699C11.0563 2.41699 12.0423 2.61466 12.959 3.00999C13.8756 3.40599 14.678 3.94766 15.366 4.63499C16.0533 5.32299 16.595 6.12533 16.991 7.04199C17.3863 7.95866 17.584 8.94466 17.584 9.99999C17.584 11.0413 17.3863 12.024 16.991 12.948C16.595 13.8713 16.0533 14.677 15.366 15.365C14.678 16.0523 13.8756 16.594 12.959 16.99C12.0423 17.3853 11.0563 17.583 10.001 17.583Z" fill="#29C157"/>
</svg>
