<svg width="20" height="16" viewBox="0 0 20 16" fill="none" xmlns="http://www.w3.org/2000/svg">
<path d="M6.425 11.575C6.575 11.725 6.75 11.8 6.95 11.8C7.15 11.8 7.325 11.725 7.475 11.575L10 9.05L12.55 11.6C12.6833 11.7333 12.85 11.8 13.05 11.8C13.25 11.8 13.425 11.725 13.575 11.575C13.725 11.425 13.8 11.25 13.8 11.05C13.8 10.85 13.725 10.675 13.575 10.525L11.05 8L13.6 5.45C13.7333 5.31667 13.8 5.15 13.8 4.95C13.8 4.75 13.725 4.575 13.575 4.425C13.425 4.275 13.25 4.2 13.05 4.2C12.85 4.2 12.675 4.275 12.525 4.425L10 6.95L7.45 4.4C7.31667 4.26667 7.15 4.2 6.95 4.2C6.75 4.2 6.575 4.275 6.425 4.425C6.275 4.575 6.2 4.75 6.2 4.95C6.2 5.15 6.275 5.325 6.425 5.475L8.95 8L6.4 10.55C6.26667 10.6833 6.2 10.85 6.2 11.05C6.2 11.25 6.275 11.425 6.425 11.575ZM1.5 16C1.1 16 0.75 15.85 0.45 15.55C0.15 15.25 0 14.9 0 14.5V1.5C0 1.1 0.15 0.75 0.45 0.45C0.75 0.15 1.1 0 1.5 0H18.5C18.9167 0 19.2708 0.15 19.5625 0.45C19.8542 0.75 20 1.1 20 1.5V14.5C20 14.9 19.8542 15.25 19.5625 15.55C19.2708 15.85 18.9167 16 18.5 16H1.5Z" fill="white"/>
</svg>
