<svg width="24" height="24" viewBox="0 0 24 24" fill="none" xmlns="http://www.w3.org/2000/svg">
<path d="M11.9938 19C11.8868 19 11.7838 18.9848 11.6848 18.9545C11.5851 18.9242 11.4971 18.8636 11.4207 18.7727L2.22921 9.68182C2.0764 9.51515 2 9.31818 2 9.09091C2 8.86364 2.0764 8.68182 2.22921 8.54545C3.58922 7.37879 5.10571 6.49606 6.77867 5.89727C8.45224 5.29909 10.1906 5 11.9938 5C13.7969 5 15.5353 5.30303 17.2089 5.90909C18.8818 6.51515 20.3983 7.39394 21.7583 8.54545C21.9111 8.69697 21.9915 8.87879 21.9994 9.09091C22.0068 9.30303 21.9417 9.48485 21.8042 9.63636L21.6437 9.77273C21.2464 9.34848 20.7614 9.00758 20.1886 8.75C19.6153 8.49242 19.023 8.36364 18.4118 8.36364C17.1893 8.36364 16.1502 8.78788 15.2945 9.63636C14.4387 10.4848 14.0109 11.5152 14.0109 12.7273C14.0109 13.3939 14.1447 14.0036 14.4124 14.5564C14.6795 15.1097 15.027 15.5682 15.4549 15.9318L12.5668 18.7727C12.4904 18.8636 12.4027 18.9242 12.3037 18.9545C12.204 18.9848 12.1007 19 11.9938 19ZM18.4118 16.1818C18.2437 16.1818 18.1062 16.1252 17.9992 16.0118C17.8922 15.8979 17.854 15.7727 17.8846 15.6364C17.9151 15.2576 18.0108 14.9394 18.1716 14.6818C18.3317 14.4242 18.6104 14.0909 19.0077 13.6818C19.3286 13.3636 19.5426 13.1136 19.6495 12.9318C19.7565 12.75 19.81 12.5455 19.81 12.3182C19.81 12.0152 19.6993 11.7461 19.4781 11.5109C19.2562 11.2764 18.9313 11.1591 18.5035 11.1591C18.2437 11.1591 18.0029 11.2158 17.781 11.3291C17.5597 11.443 17.3727 11.5985 17.2199 11.7955C17.1129 11.9318 16.9906 12.0227 16.8531 12.0682C16.7156 12.1136 16.5857 12.1061 16.4634 12.0455C16.3106 11.9848 16.2113 11.8864 16.1655 11.75C16.1196 11.6136 16.1273 11.4848 16.1884 11.3636C16.4329 11 16.7538 10.7006 17.1511 10.4655C17.5484 10.2309 17.9992 10.1136 18.5035 10.1136C19.2064 10.1136 19.7794 10.3218 20.2226 10.7382C20.6657 11.1552 20.8873 11.6894 20.8873 12.3409C20.8873 12.6894 20.8109 12.9961 20.6581 13.2609C20.5053 13.5264 20.2149 13.8788 19.7871 14.3182C19.512 14.5758 19.321 14.7955 19.214 14.9773C19.1071 15.1591 19.0383 15.3788 19.0077 15.6364C18.9772 15.7879 18.9084 15.9167 18.8014 16.0227C18.6945 16.1288 18.5646 16.1818 18.4118 16.1818ZM18.3889 18.6818C18.1749 18.6818 17.9955 18.6061 17.8507 18.4545C17.7052 18.303 17.6324 18.1212 17.6324 17.9091C17.6324 17.697 17.7052 17.5152 17.8507 17.3636C17.9955 17.2121 18.1749 17.1364 18.3889 17.1364C18.6028 17.1364 18.7862 17.2121 18.939 17.3636C19.0918 17.5152 19.1682 17.697 19.1682 17.9091C19.1682 18.1212 19.0918 18.303 18.939 18.4545C18.7862 18.6061 18.6028 18.6818 18.3889 18.6818Z" fill="#B3B3B3"/>
</svg>
