<svg width="24" height="24" viewBox="0 0 24 24" fill="none" xmlns="http://www.w3.org/2000/svg">
<path opacity="0.6" d="M9.09107 14.6826C9.5046 14.3613 9.95733 14.1098 10.4493 13.9281C10.9412 13.7465 11.4581 13.6557 12 13.6557C12.5419 13.6557 13.0588 13.7465 13.5507 13.9281C14.0427 14.1098 14.4954 14.3613 14.9089 14.6826L20.3846 9.31736C19.144 8.36726 17.8285 7.61976 16.4383 7.07485C15.048 6.52994 13.5685 6.25748 12 6.25748C10.4315 6.25748 8.95204 6.52994 7.56175 7.07485C6.17145 7.61976 4.85602 8.36726 3.61545 9.31736L9.09107 14.6826ZM12 19C11.9144 19 11.836 18.986 11.7647 18.9581C11.6934 18.9301 11.6221 18.8812 11.5508 18.8114L2.18237 9.63174C2.05404 9.50599 1.99343 9.35928 2.00056 9.19162C2.00769 9.02395 2.07542 8.88423 2.20376 8.77245C3.55841 7.5988 5.06634 6.67665 6.72757 6.00599C8.38879 5.33533 10.1463 5 12 5C13.8537 5 15.6112 5.33533 17.2724 6.00599C18.9337 6.67665 20.4416 7.5988 21.7962 8.77245C21.9246 8.88423 21.9923 9.02395 21.9994 9.19162C22.0066 9.35928 21.946 9.50599 21.8176 9.63174L12.4492 18.8114C12.3779 18.8812 12.3066 18.9301 12.2353 18.9581C12.164 18.986 12.0856 19 12 19Z" fill="#FF414D"/>
</svg>
