<svg width="24" height="24" viewBox="0 0 24 24" fill="none" xmlns="http://www.w3.org/2000/svg">
<path opacity="0.6" d="M12 19C11.8931 19 11.7902 18.9848 11.6912 18.9545C11.5916 18.9242 11.5037 18.8636 11.4273 18.7727L2.21858 9.65909C2.06587 9.49242 1.99317 9.30303 2.0005 9.09091C2.00844 8.87879 2.08877 8.69697 2.24149 8.54545C3.61593 7.39394 5.13544 6.51515 6.80004 5.90909C8.46464 5.30303 10.198 5 12 5C13.802 5 15.5354 5.30303 17.2 5.90909C18.8646 6.51515 20.3841 7.39394 21.7585 8.54545C21.9112 8.69697 21.9916 8.87879 21.9995 9.09091C22.0068 9.30303 21.9341 9.49242 21.7814 9.65909L12.5727 18.7727C12.4963 18.8636 12.4087 18.9242 12.3097 18.9545C12.2101 18.9848 12.1069 19 12 19Z" fill="#29C157"/>
</svg>
