<svg width="24" height="24" viewBox="0 0 24 24" fill="none" xmlns="http://www.w3.org/2000/svg">
<path d="M12 18.7764C11.8931 18.7764 11.7902 18.7614 11.6912 18.7316C11.5916 18.7018 11.5037 18.6422 11.4273 18.5527L2.21858 9.58466C2.06587 9.42066 1.99317 9.23071 2.0005 9.01482C2.00844 8.79834 2.08877 8.623 2.24149 8.48882C3.60066 7.3557 5.10857 6.49095 6.76522 5.89457C8.42249 5.29819 10.1674 5 12 5C13.8326 5 15.5772 5.29819 17.2339 5.89457C18.8911 6.49095 20.3993 7.3557 21.7585 8.48882C21.9112 8.623 21.9916 8.79834 21.9995 9.01482C22.0068 9.23071 21.9341 9.42066 21.7814 9.58466L19.6052 11.7093H13.6493C13.1912 11.7093 12.8018 11.8658 12.4811 12.1789C12.1604 12.492 12 12.8722 12 13.3195V18.7764ZM14.4511 18.7987C14.3289 18.6794 14.2678 18.5268 14.2678 18.3407C14.2678 18.154 14.3289 17.9936 14.4511 17.8594L15.8942 16.4505L14.4511 15.0415C14.3289 14.9223 14.2678 14.7696 14.2678 14.5835C14.2678 14.3968 14.3289 14.2364 14.4511 14.1022C14.5885 13.983 14.7528 13.9233 14.944 13.9233C15.1346 13.9233 15.291 13.983 15.4132 14.1022L16.8563 15.5112L18.2995 14.1022C18.437 13.983 18.6013 13.9233 18.7925 13.9233C18.9831 13.9233 19.1394 13.983 19.2616 14.1022C19.3991 14.2364 19.4678 14.3968 19.4678 14.5835C19.4678 14.7696 19.3991 14.9223 19.2616 15.0415L17.8185 16.4505L19.2616 17.8594C19.3991 17.9936 19.4678 18.154 19.4678 18.3407C19.4678 18.5268 19.3991 18.6794 19.2616 18.7987C19.1394 18.9329 18.9831 19 18.7925 19C18.6013 19 18.437 18.9329 18.2995 18.7987L16.8563 17.3898L15.4132 18.7987C15.291 18.9329 15.1346 19 14.944 19C14.7528 19 14.5885 18.9329 14.4511 18.7987Z" fill="#B3B3B3"/>
</svg>
