<svg width="25" height="24" viewBox="0 0 25 24" fill="currentColor" xmlns="http://www.w3.org/2000/svg">
<path d="M12.4998 8C14.4665 8 16.4038 8.396 18.3118 9.188C20.2205 9.97933 21.9165 11.1667 23.3998 12.75C23.5998 12.95 23.6998 13.1833 23.6998 13.45C23.6998 13.7167 23.5998 13.95 23.3998 14.15L21.0998 16.4C20.9165 16.5833 20.7041 16.6833 20.4628 16.7C20.2208 16.7167 19.9998 16.65 19.7998 16.5L16.8998 14.3C16.7665 14.2 16.6665 14.0833 16.5998 13.95C16.5331 13.8167 16.4998 13.6667 16.4998 13.5V10.65C15.8665 10.45 15.2165 10.2917 14.5498 10.175C13.8831 10.0583 13.1998 10 12.4998 10C11.7998 10 11.1165 10.0583 10.4498 10.175C9.78314 10.2917 9.13314 10.45 8.4998 10.65V13.5C8.4998 13.6667 8.46647 13.8167 8.3998 13.95C8.33314 14.0833 8.23314 14.2 8.0998 14.3L5.1998 16.5C4.9998 16.65 4.77914 16.7167 4.5378 16.7C4.2958 16.6833 4.08314 16.5833 3.8998 16.4L1.5998 14.15C1.3998 13.95 1.2998 13.7167 1.2998 13.45C1.2998 13.1833 1.3998 12.95 1.5998 12.75C3.06647 11.1667 4.75814 9.97933 6.6748 9.188C8.59147 8.396 10.5331 8 12.4998 8Z"/>
</svg>
