<svg width="24" height="24" viewBox="0 0 24 24" fill="currentColor" xmlns="http://www.w3.org/2000/svg">
<path d="M4.22222 22H10.8889V2H4.22222C3.61111 2 3.08778 2.21741 2.65222 2.65222C2.21741 3.08778 2 3.61111 2 4.22222V19.7778C2 20.3889 2.21741 20.9122 2.65222 21.3478C3.08778 21.7826 3.61111 22 4.22222 22ZM13.1111 22H19.7778C20.3889 22 20.9122 21.7826 21.3478 21.3478C21.7826 20.9122 22 20.3889 22 19.7778V12H13.1111V22ZM13.1111 9.77778H22V4.22222C22 3.61111 21.7826 3.08778 21.3478 2.65222C20.9122 2.21741 20.3889 2 19.7778 2H13.1111V9.77778Z"/>
</svg>
