<svg width="24" height="24" viewBox="0 0 24 24" fill="none" xmlns="http://www.w3.org/2000/svg">
<g clip-path="url(#clip0_2791_95018)">
<path d="M17.3333 12C16.9667 12 16.6667 12.3 16.6667 12.6667V16.6667H7.33333V7.33333H11.3333C11.7 7.33333 12 7.03333 12 6.66667C12 6.3 11.7 6 11.3333 6H7.33333C6.6 6 6 6.6 6 7.33333V16.6667C6 17.4 6.6 18 7.33333 18H16.6667C17.4 18 18 17.4 18 16.6667V12.6667C18 12.3 17.7 12 17.3333 12Z" fill="#099DFD"/>
<path d="M17.667 6H14.1403C13.8403 6 13.6937 6.36 13.907 6.56667L15.2003 7.86L10.0003 13.06C9.93862 13.1217 9.88966 13.195 9.85626 13.2756C9.82286 13.3563 9.80566 13.4427 9.80566 13.53C9.80566 13.6173 9.82286 13.7037 9.85626 13.7844C9.88966 13.865 9.93862 13.9383 10.0003 14C10.0621 14.0617 10.1353 14.1107 10.216 14.1441C10.2966 14.1775 10.3831 14.1947 10.4703 14.1947C10.5576 14.1947 10.6441 14.1775 10.7247 14.1441C10.8053 14.1107 10.8786 14.0617 10.9403 14L16.1337 8.80667L17.427 10.1C17.6403 10.3067 18.0003 10.16 18.0003 9.86V6.33333C18.0003 6.14667 17.8537 6 17.667 6Z" fill="#099DFD"/>
</g>
<defs>
<clipPath id="clip0_2791_95018">
<rect width="16" height="16" fill="white" transform="translate(4 4)"/>
</clipPath>
</defs>
</svg>
