
<svg xmlns="http://www.w3.org/2000/svg" width="24" height="24" viewBox="0 0 24 24" fill="currentColor">
<path fill-rule="evenodd" clip-rule="evenodd" d="M6 2.00378C6.55228 2.00378 7 2.4515 7 3.00378L7 6.00378C7 6.55607 6.55228 7.00378 6 7.00378H3C2.44772 7.00378 2 6.55607 2 6.00378V3.00378C2 2.4515 2.44772 2.00378 3 2.00378H6ZM15 3.00378C15 2.4515 14.5523 2.00378 14 2.00378H10C9.44772 2.00378 9 2.4515 9 3.00378L9 6.00378C9 6.55607 9.44772 7.00378 10 7.00378H14C14.5523 7.00378 15 6.55607 15 6.00378V3.00378ZM22 3.00378C22 2.4515 21.5523 2.00378 21 2.00378H18C17.4477 2.00378 17 2.4515 17 3.00378V6.00378C17 6.55607 17.4477 7.00378 18 7.00378H21C21.5523 7.00378 22 6.55607 22 6.00378V3.00378ZM3 9.00378C2.44772 9.00378 2 9.4515 2 10.0038V21.0038C2 21.5561 2.44772 22.0038 3 22.0038H21C21.5523 22.0038 22 21.5561 22 21.0038V10.0038C22 9.4515 21.5523 9.00378 21 9.00378H3Z" />
</svg>