<svg width="24" height="24" viewBox="0 0 24 24" fill="none" xmlns="http://www.w3.org/2000/svg">
<path d="M21.4249 21.5166C21.1354 21.7877 20.6844 21.7851 20.3981 21.5106L18.269 19.4696V19.4939C18.1168 19.7859 17.8799 20.0292 17.5584 20.2238C17.2369 20.4185 16.8731 20.5158 16.467 20.5158H11.4162C11.044 20.5158 10.6931 20.4428 10.3635 20.2968C10.0332 20.1509 9.74958 19.9562 9.51269 19.7129L4.14931 14.3007C3.65778 13.8048 3.68468 12.9975 4.20812 12.5353C4.34349 12.4055 4.49577 12.3364 4.66497 12.328C4.83418 12.3202 5.00338 12.3569 5.17259 12.438L7.86294 13.9221V9.49392L2.55553 4.40604C2.2515 4.11457 2.24865 3.62944 2.54923 3.33443C2.83714 3.05186 3.29746 3.04915 3.58868 3.32832L21.4312 20.4329C21.7403 20.7291 21.7374 21.224 21.4249 21.5166ZM19.1066 15.455L13.9289 10.4915H14.0305V3.84915C14.0305 3.58962 14.1279 3.36642 14.3228 3.17956C14.5171 2.99335 14.7496 2.90024 15.0203 2.90024C15.308 2.90024 15.5492 2.98946 15.7442 3.16788C15.9384 3.34631 16.0355 3.5734 16.0355 3.84915V10.8073C16.0355 10.8698 16.061 10.9296 16.1061 10.9728C16.1097 10.9762 16.1144 10.9781 16.1194 10.9781H17.1269V5.64964C17.1269 5.39011 17.22 5.16691 17.4061 4.98005C17.5922 4.79384 17.8291 4.70073 18.1168 4.70073C18.4044 4.70073 18.6413 4.78994 18.8274 4.96837C19.0135 5.1468 19.1066 5.37388 19.1066 5.64964V15.455ZM12.9391 9.54258L10.9594 7.64477V2.94891C10.9594 2.67316 11.0525 2.44607 11.2386 2.26764C11.4247 2.08921 11.6616 2 11.9492 2C12.2369 2 12.4738 2.09311 12.6599 2.27932C12.846 2.46618 12.9391 2.68938 12.9391 2.94891V9.54258ZM9.84264 6.57421L7.86294 4.6764C7.87987 4.43309 7.98139 4.22612 8.16751 4.05547C8.35364 3.88548 8.58207 3.80049 8.85279 3.80049C9.14044 3.80049 9.37733 3.89359 9.56345 4.07981C9.74958 4.26667 9.84264 4.48986 9.84264 4.74939V6.57421Z" fill="#FF414D"/>
</svg>
