<svg width="24" height="24" viewBox="0 0 24 24" fill="currentColor" xmlns="http://www.w3.org/2000/svg">
<path d="M17.2498 14.1751L16.1248 13.0501C16.2915 12.7668 16.4208 12.4501 16.5128 12.1001C16.6041 11.7501 16.6498 11.3834 16.6498 11.0001H18.1498C18.1498 11.6168 18.0708 12.1874 17.9128 12.7121C17.7541 13.2374 17.5331 13.7251 17.2498 14.1751ZM14.0248 10.9251L12.6498 9.5501V5.0001C12.6498 4.71676 12.5541 4.4791 12.3628 4.2871C12.1708 4.09576 11.9331 4.0001 11.6498 4.0001C11.3665 4.0001 11.1291 4.09576 10.9378 4.2871C10.7458 4.4791 10.6498 4.71676 10.6498 5.0001V7.5251L9.1498 6.0251V5.0001C9.1498 4.3001 9.39147 3.70843 9.8748 3.2251C10.3581 2.74176 10.9498 2.5001 11.6498 2.5001C12.3498 2.5001 12.9415 2.74176 13.4248 3.2251C13.9081 3.70843 14.1498 4.3001 14.1498 5.0001V10.3501C14.1498 10.4668 14.1375 10.5708 14.1128 10.6621C14.0875 10.7541 14.0581 10.8418 14.0248 10.9251ZM10.8998 20.7501V17.4501C9.2498 17.2668 7.87914 16.5628 6.7878 15.3381C5.6958 14.1128 5.1498 12.6668 5.1498 11.0001H6.64981C6.64981 12.3834 7.13314 13.5624 8.0998 14.5371C9.06647 15.5124 10.2498 16.0001 11.6498 16.0001C12.2831 16.0001 12.8831 15.8834 13.4498 15.6501C14.0165 15.4168 14.5165 15.1001 14.9498 14.7001L16.0248 15.7751C15.5415 16.2251 14.9915 16.6001 14.3748 16.9001C13.7581 17.2001 13.0998 17.3834 12.3998 17.4501V20.7501H10.8998ZM19.8748 21.7251L1.6748 3.5251L2.7248 2.4751L20.9248 20.6501L19.8748 21.7251Z"/>
<path d="M20.1004 21.925L1.65039 3.49995L2.72539 2.44995L21.1504 20.875L20.1004 21.925Z" />
</svg>
