<svg width="14" height="20" viewBox="0 0 14 20" fill="none" xmlns="http://www.w3.org/2000/svg">
<path d="M7 12.0548C6.24138 12.0548 5.60016 11.79 5.07635 11.2603C4.55255 10.7306 4.29064 10.0822 4.29064 9.31507V2.73973C4.29064 1.9726 4.55255 1.3242 5.07635 0.79452C5.60016 0.26484 6.24138 0 7 0C7.75862 0 8.39984 0.26484 8.92365 0.79452C9.44745 1.3242 9.70936 1.9726 9.70936 2.73973V9.31507C9.70936 10.0822 9.44745 10.7306 8.92365 11.2603C8.39984 11.79 7.75862 12.0548 7 12.0548ZM7 20C6.76519 20 6.5712 19.9226 6.41803 19.7677C6.26414 19.6121 6.18719 19.4155 6.18719 19.1781V16.3836C4.54351 16.2009 3.14837 15.5295 2.00177 14.3693C0.85445 13.2099 0.190476 11.8174 0.00985224 10.1918C-0.0262726 9.95434 0.0369455 9.74904 0.199507 9.57589C0.362069 9.40201 0.569787 9.31507 0.82266 9.31507C1.02135 9.31507 1.19727 9.38813 1.35044 9.53425C1.50433 9.68036 1.59934 9.86301 1.63547 10.0822C1.81609 11.4155 2.41215 12.5341 3.42364 13.4378C4.43514 14.3423 5.62726 14.7945 7 14.7945C8.37274 14.7945 9.56486 14.3423 10.5764 13.4378C11.5878 12.5341 12.1839 11.4155 12.3645 10.0822C12.4007 9.86301 12.4953 9.68036 12.6485 9.53425C12.8024 9.38813 12.9787 9.31507 13.1773 9.31507C13.4302 9.31507 13.6379 9.40201 13.8005 9.57589C13.9631 9.74904 14.0263 9.95434 13.9901 10.1918C13.8095 11.8174 13.1459 13.2099 11.9993 14.3693C10.852 15.5295 9.45649 16.2009 7.81281 16.3836V19.1781C7.81281 19.4155 7.73622 19.6121 7.58305 19.7677C7.42916 19.9226 7.23481 20 7 20Z" fill="#099DFD"/>
</svg>
