<svg width="24" height="24" viewBox="0 0 24 24" fill="currentColor" xmlns="http://www.w3.org/2000/svg">
<path d="M12 14.0548C11.2414 14.0548 10.6002 13.79 10.0764 13.2603C9.55255 12.7306 9.29064 12.0822 9.29064 11.3151V4.73973C9.29064 3.9726 9.55255 3.3242 10.0764 2.79452C10.6002 2.26484 11.2414 2 12 2C12.7586 2 13.3998 2.26484 13.9236 2.79452C14.4475 3.3242 14.7094 3.9726 14.7094 4.73973V11.3151C14.7094 12.0822 14.4475 12.7306 13.9236 13.2603C13.3998 13.79 12.7586 14.0548 12 14.0548ZM12 22C11.7652 22 11.5712 21.9226 11.418 21.7677C11.2641 21.6121 11.1872 21.4155 11.1872 21.1781V18.3836C9.54351 18.2009 8.14837 17.5295 7.00177 16.3693C5.85445 15.2099 5.19048 13.8174 5.00985 12.1918C4.97373 11.9543 5.03695 11.749 5.19951 11.5759C5.36207 11.402 5.56979 11.3151 5.82266 11.3151C6.02135 11.3151 6.19727 11.3881 6.35044 11.5342C6.50433 11.6804 6.59934 11.863 6.63547 12.0822C6.81609 13.4155 7.41215 14.5341 8.42364 15.4378C9.43514 16.3423 10.6273 16.7945 12 16.7945C13.3727 16.7945 14.5649 16.3423 15.5764 15.4378C16.5878 14.5341 17.1839 13.4155 17.3645 12.0822C17.4007 11.863 17.4953 11.6804 17.6485 11.5342C17.8024 11.3881 17.9787 11.3151 18.1773 11.3151C18.4302 11.3151 18.6379 11.402 18.8005 11.5759C18.9631 11.749 19.0263 11.9543 18.9901 12.1918C18.8095 13.8174 18.1459 15.2099 16.9993 16.3693C15.852 17.5295 14.4565 18.2009 12.8128 18.3836V21.1781C12.8128 21.4155 12.7362 21.6121 12.5831 21.7677C12.4292 21.9226 12.2348 22 12 22Z" />
</svg>
