<svg width="24" height="24" viewBox="0 0 24 24" fill="currentColor" xmlns="http://www.w3.org/2000/svg">
<path d="M10.3504 5.29896C10.3504 4.84077 10.511 4.45149 10.8321 4.13112C11.1525 3.81003 11.5417 3.64948 11.9999 3.64948C12.4581 3.64948 12.8474 3.81003 13.1678 4.13112C13.4889 4.45149 13.6494 4.84077 13.6494 5.29896C13.6494 5.75715 13.4889 6.1468 13.1678 6.46789C12.8474 6.78826 12.4581 6.94844 11.9999 6.94844C11.5417 6.94844 11.1525 6.78826 10.8321 6.46789C10.511 6.14679 10.3504 5.75715 10.3504 5.29896ZM10.3504 11.6495C10.3504 11.1913 10.511 10.802 10.8321 10.4816C11.1525 10.1605 11.5417 9.99999 11.9999 9.99999C12.4581 9.99999 12.8474 10.1605 13.1678 10.4816C13.4889 10.802 13.6494 11.1913 13.6494 11.6495C13.6494 12.1077 13.4889 12.4969 13.1678 12.8173C12.8474 13.1384 12.4581 13.299 11.9999 13.299C11.5417 13.299 11.1525 13.1384 10.8321 12.8173C10.511 12.4969 10.3504 12.1077 10.3504 11.6495ZM10.3504 18C10.3504 17.5418 10.511 17.1525 10.8321 16.8322C11.1525 16.5111 11.5417 16.3505 11.9999 16.3505C12.4581 16.3505 12.8474 16.5111 13.1678 16.8322C13.4889 17.1525 13.6494 17.5418 13.6494 18C13.6494 18.4582 13.4889 18.8478 13.1678 19.1689C12.8474 19.4893 12.4581 19.6495 11.9999 19.6495C11.5417 19.6495 11.1525 19.4893 10.8321 19.1689C10.511 18.8478 10.3504 18.4582 10.3504 18Z"/>
</svg>
