<svg width="24" height="24" viewBox="0 0 24 24" fill="none" xmlns="http://www.w3.org/2000/svg">
<path d="M20.1001 21.7616L2.20539 3.3245C2.06846 3.18322 2 3.00662 2 2.7947C2 2.58278 2.07702 2.39735 2.23107 2.23841C2.38511 2.07947 2.56928 2 2.78357 2C2.99718 2 3.181 2.07947 3.33504 2.23841L21.2041 20.6755C21.341 20.8168 21.4095 20.9934 21.4095 21.2053C21.4095 21.4172 21.3325 21.6026 21.1784 21.7616C21.0244 21.9205 20.8447 22 20.6393 22C20.4339 22 20.2542 21.9205 20.1001 21.7616ZM18.38 14.7417L7.57125 3.61589H16.5058C17.0364 3.61589 17.4814 3.80132 17.8408 4.17219C18.2003 4.54305 18.38 4.99338 18.38 5.52318V10.3709L21.1784 7.48344C21.3325 7.3245 21.5081 7.28459 21.7053 7.36371C21.9018 7.44353 22 7.59823 22 7.82782V15.298C22 15.5276 21.9018 15.6819 21.7053 15.7611C21.5081 15.8409 21.3325 15.8013 21.1784 15.6424L18.38 12.755V14.7417ZM4.69576 3.64238L18.3543 17.7351C18.3372 18.2119 18.1404 18.6269 17.7638 18.9801C17.3872 19.3333 16.9593 19.5099 16.4801 19.5099H4.79846C4.28498 19.5099 3.84852 19.3245 3.48909 18.9536C3.12965 18.5828 2.94994 18.1325 2.94994 17.6026V5.52318C2.94994 5.04636 3.1211 4.61369 3.46341 4.22517C3.80573 3.83664 4.21652 3.64238 4.69576 3.64238Z" fill="#8F8F8F"/>
<path d="M7 24C6.04333 24 5.13917 23.8162 4.2875 23.4487C3.43583 23.0812 2.69208 22.5796 2.05625 21.9437C1.42042 21.3079 0.91875 20.5642 0.55125 19.7125C0.18375 18.8608 0 17.9508 0 16.9825C0 16.0258 0.18375 15.1217 0.55125 14.27C0.91875 13.4183 1.42042 12.6775 2.05625 12.0475C2.69208 11.4175 3.43583 10.9187 4.2875 10.5512C5.13917 10.1837 6.04917 10 7.0175 10C7.97417 10 8.87833 10.1837 9.73 10.5512C10.5817 10.9187 11.3225 11.4175 11.9525 12.0475C12.5825 12.6775 13.0812 13.4183 13.4487 14.27C13.8162 15.1217 14 16.0317 14 17C14 17.9567 13.8162 18.8608 13.4487 19.7125C13.0812 20.5642 12.5825 21.3079 11.9525 21.9437C11.3225 22.5796 10.5817 23.0812 9.73 23.4487C8.87833 23.8162 7.96833 24 7 24Z" fill="#FFAB00"/>
<path d="M6 12.5V18.5H8V12.5H6Z" fill="white"/>
<path d="M7 22C7.55228 22 8 21.5523 8 21C8 20.4477 7.55228 20 7 20C6.44772 20 6 20.4477 6 21C6 21.5523 6.44772 22 7 22Z" fill="white"/>
</svg>
