<svg width="24" height="24" viewBox="0 0 24 24" fill="none" xmlns="http://www.w3.org/2000/svg">
<path d="M17.3978 14.3545L16.1882 13.164C16.3136 12.97 16.4211 12.7496 16.5108 12.5026C16.6004 12.2557 16.6631 12 16.6989 11.7354C16.7348 11.5238 16.829 11.3474 16.9817 11.2063C17.1337 11.0653 17.3082 10.9947 17.5054 10.9947C17.7563 10.9947 17.9624 11.0787 18.1237 11.2466C18.2849 11.4138 18.3477 11.612 18.3118 11.8413C18.2401 12.3175 18.1283 12.7626 17.9763 13.1767C17.8237 13.5915 17.6308 13.9841 17.3978 14.3545ZM13.9301 10.9153L8.68817 5.73016V4.6455C8.68817 3.90476 8.94803 3.27866 9.46774 2.7672C9.98745 2.25573 10.6237 2 11.3763 2C12.129 2 12.7652 2.25573 13.2849 2.7672C13.8047 3.27866 14.0645 3.90476 14.0645 4.6455V10.3069C14.0645 10.4303 14.0513 10.5404 14.0247 10.637C13.9975 10.7344 13.9659 10.8272 13.9301 10.9153ZM19.6559 21.7884L1.21505 3.64021C1.07168 3.49912 1 3.31817 1 3.09735C1 2.87725 1.07168 2.68783 1.21505 2.5291C1.37634 2.37037 1.56918 2.29101 1.79355 2.29101C2.0172 2.29101 2.20072 2.37037 2.34409 2.5291L20.7849 20.6508C20.9283 20.8095 21 20.9993 21 21.2201C21 21.4402 20.9283 21.6296 20.7849 21.7884C20.6237 21.9295 20.4312 22 20.2075 22C19.9832 22 19.7993 21.9295 19.6559 21.7884ZM10.5699 20.5185V17.8201C8.93907 17.6437 7.55448 16.9954 6.41613 15.8751C5.27849 14.7556 4.62007 13.4109 4.44086 11.8413C4.40502 11.612 4.46774 11.4138 4.62903 11.2466C4.79032 11.0787 4.99642 10.9947 5.24731 10.9947C5.44444 10.9947 5.6147 11.0653 5.75806 11.2063C5.90143 11.3474 6 11.5238 6.05376 11.7354C6.23297 13.0229 6.82437 14.103 7.82796 14.9757C8.83154 15.849 10.0143 16.2857 11.3763 16.2857C12.0573 16.2857 12.7025 16.1623 13.3118 15.9153C13.9211 15.6684 14.4588 15.3333 14.9247 14.9101L16.0806 16.0476C15.5609 16.5238 14.9695 16.916 14.3065 17.2243C13.6434 17.5333 12.9355 17.7319 12.1828 17.8201V20.5185C12.1828 20.7478 12.1068 20.9376 11.9548 21.0878C11.8021 21.2374 11.6093 21.3122 11.3763 21.3122C11.1434 21.3122 10.9509 21.2374 10.7989 21.0878C10.6462 20.9376 10.5699 20.7478 10.5699 20.5185Z" fill="#8F8F8F"/>
<path d="M7 24C6.04333 24 5.13917 23.8162 4.2875 23.4487C3.43583 23.0812 2.69208 22.5796 2.05625 21.9437C1.42042 21.3079 0.91875 20.5642 0.55125 19.7125C0.18375 18.8608 0 17.9508 0 16.9825C0 16.0258 0.18375 15.1217 0.55125 14.27C0.91875 13.4183 1.42042 12.6775 2.05625 12.0475C2.69208 11.4175 3.43583 10.9187 4.2875 10.5512C5.13917 10.1837 6.04917 10 7.0175 10C7.97417 10 8.87833 10.1837 9.73 10.5512C10.5817 10.9187 11.3225 11.4175 11.9525 12.0475C12.5825 12.6775 13.0812 13.4183 13.4487 14.27C13.8162 15.1217 14 16.0317 14 17C14 17.9567 13.8162 18.8608 13.4487 19.7125C13.0812 20.5642 12.5825 21.3079 11.9525 21.9437C11.3225 22.5796 10.5817 23.0812 9.73 23.4487C8.87833 23.8162 7.96833 24 7 24Z" fill="#FFAB00"/>
<path d="M6 12.5V18.5H8V12.5H6Z" fill="white"/>
<path d="M7 22C7.55228 22 8 21.5523 8 21C8 20.4477 7.55228 20 7 20C6.44772 20 6 20.4477 6 21C6 21.5523 6.44772 22 7 22Z" fill="white"/>
</svg>
