<svg width="24" height="24" viewBox="0 0 24 24" fill="currentColor" xmlns="http://www.w3.org/2000/svg">
<path d="M2.88235 19C2.63725 19 2.42876 18.9201 2.25686 18.7603C2.08562 18.6005 2 18.3927 2 18.137V16.8664C2 16.371 2.13072 15.9315 2.39216 15.5479C2.65359 15.1644 3.0049 14.8607 3.44608 14.637C4.37745 14.2055 5.31307 13.866 6.25294 13.6186C7.19216 13.3706 8.22549 13.2466 9.35294 13.2466C10.4804 13.2466 11.5141 13.3706 12.4539 13.6186C13.3931 13.866 14.3284 14.2055 15.2598 14.637C15.701 14.8607 16.0523 15.1644 16.3137 15.5479C16.5752 15.9315 16.7059 16.371 16.7059 16.8664V18.137C16.7059 18.3927 16.6203 18.6005 16.449 18.7603C16.2771 18.9201 16.0686 19 15.8235 19H2.88235ZM18.2745 19C18.4052 18.9041 18.5033 18.7804 18.5686 18.6289C18.634 18.4768 18.6667 18.3128 18.6667 18.137V16.7466C18.6667 16.1233 18.5072 15.5278 18.1882 14.9601C17.8699 14.3931 17.4248 13.9018 16.8529 13.4863C17.5065 13.5822 18.1275 13.7299 18.7157 13.9293C19.3039 14.1294 19.8676 14.3653 20.4069 14.637C20.9134 14.9087 21.3056 15.2245 21.5833 15.5844C21.8611 15.9437 22 16.3311 22 16.7466V18.137C22 18.3927 21.9144 18.6005 21.7431 18.7603C21.5712 18.9201 21.3627 19 21.1176 19H18.2745ZM9.35294 11.7123C8.40523 11.7123 7.5964 11.3805 6.92647 10.717C6.25654 10.0541 5.92157 9.26712 5.92157 8.35616C5.92157 7.42922 6.25654 6.63813 6.92647 5.98288C7.5964 5.32763 8.40523 5 9.35294 5C10.3007 5 11.1095 5.32763 11.7794 5.98288C12.4493 6.63813 12.7843 7.42922 12.7843 8.35616C12.7843 9.26712 12.4493 10.0541 11.7794 10.717C11.1095 11.3805 10.3007 11.7123 9.35294 11.7123ZM17.8088 8.35616C17.8088 9.26712 17.4739 10.0541 16.8039 10.717C16.134 11.3805 15.3252 11.7123 14.3774 11.7123C14.2794 11.7123 14.1444 11.7002 13.9725 11.6759C13.8013 11.6522 13.6585 11.6244 13.5441 11.5925C13.9363 11.129 14.2346 10.6217 14.4392 10.0707C14.6431 9.519 14.7451 8.94749 14.7451 8.35616C14.7451 7.74886 14.6389 7.17352 14.4265 6.63014C14.2141 6.08676 13.9199 5.58333 13.5441 5.11986C13.6748 5.07192 13.8137 5.03995 13.9608 5.02397C14.1078 5.00799 14.2467 5 14.3774 5C15.3252 5 16.134 5.32763 16.8039 5.98288C17.4739 6.63813 17.8088 7.42922 17.8088 8.35616Z"/>
</svg>
