<svg width="24" height="24" viewBox="0 0 24 24" fill="currentColor" xmlns="http://www.w3.org/2000/svg">
<path fill-rule="evenodd" clip-rule="evenodd" d="M3 2C2.44772 2 2 2.44772 2 3V6C2 6.55228 2.44772 7 3 7H10C10.5523 7 11 6.55228 11 6V3C11 2.44772 10.5523 2 10 2H3ZM3 9C2.44772 9 2 9.44772 2 10V14C2 14.5523 2.44772 15 3 15H10C10.5523 15 11 14.5523 11 14V10C11 9.44772 10.5523 9 10 9H3ZM2 18C2 17.4477 2.44772 17 3 17H10C10.5523 17 11 17.4477 11 18V21C11 21.5523 10.5523 22 10 22H3C2.44772 22 2 21.5523 2 21V18ZM14 2C13.4477 2 13 2.44772 13 3V21C13 21.5523 13.4477 22 14 22H21C21.5523 22 22 21.5523 22 21V3C22 2.44772 21.5523 2 21 2H14Z" />
</svg>
