<svg width="24" height="24" viewBox="0 0 24 24" fill="none" xmlns="http://www.w3.org/2000/svg">
<path d="M12.0115 22C13.023 22 13.9542 21.8228 14.8051 21.4684C15.6553 21.1141 16.391 20.6377 17.012 20.0394C17.6323 19.4417 18.1188 18.7442 18.4713 17.9468C18.8238 17.1495 19 16.3079 19 15.4219V10.2835C19 9.98819 18.8967 9.74072 18.6901 9.54109C18.4829 9.34205 18.2261 9.24253 17.9195 9.24253C17.613 9.24253 17.3562 9.34205 17.149 9.54109C16.9424 9.74072 16.8391 9.98819 16.8391 10.2835V14.2702H16.5632C15.6437 14.3736 14.9157 14.7023 14.3793 15.2563C13.8429 15.8097 13.5441 16.4555 13.4828 17.1938H12.6552C12.7318 16.2783 13.069 15.4958 13.6667 14.8461C14.2644 14.1964 15.0536 13.7756 16.0345 13.5836V4.90144C16.0345 4.60613 15.9312 4.35866 15.7246 4.15903C15.5174 3.95999 15.2605 3.86047 14.954 3.86047C14.6475 3.86047 14.3946 3.95999 14.1954 4.15903C13.9962 4.35866 13.8966 4.60613 13.8966 4.90144V11.3466H13.069V3.01883C13.069 2.72351 12.9654 2.47988 12.7582 2.28793C12.5516 2.09598 12.3027 2 12.0115 2C11.705 2 11.4484 2.09598 11.2418 2.28793C11.0346 2.47988 10.931 2.72351 10.931 3.01883V11.3466H10.1264V4.14839C10.1264 3.86785 10.0231 3.62422 9.81655 3.4175C9.60935 3.21078 9.35249 3.10742 9.04598 3.10742C8.73946 3.10742 8.48291 3.21078 8.27632 3.4175C8.06912 3.62422 7.96552 3.86785 7.96552 4.14839V11.9003H7.13793V6.73976C7.13793 6.44445 7.03464 6.19727 6.82805 5.99823C6.62084 5.7986 6.37165 5.69878 6.08046 5.69878C5.77395 5.69878 5.51739 5.7986 5.3108 5.99823C5.1036 6.19727 5 6.44445 5 6.73976V15.4219C5 16.3079 5.17625 17.1495 5.52874 17.9468C5.88123 18.7442 6.37165 19.4417 7 20.0394C7.62835 20.6377 8.36797 21.1141 9.21885 21.4684C10.0691 21.8228 11 22 12.0115 22Z" fill="#099DFD"/>
</svg>
