<svg width="24" height="24" viewBox="0 0 24 24" fill="currentColor" xmlns="http://www.w3.org/2000/svg">
<path d="M4.45483 19.9152C4.11252 20.0525 3.78466 20.0231 3.47125 19.8269C3.15708 19.6308 3 19.3365 3 18.9442V14.7953C3 14.5599 3.07151 14.3442 3.21452 14.148C3.35677 13.9518 3.55151 13.8243 3.79873 13.7655L10.9017 12L3.79873 10.2345C3.55151 10.1757 3.35677 10.0533 3.21452 9.86731C3.07151 9.68056 3 9.45969 3 9.20467V5.05582C3 4.66349 3.15708 4.36925 3.47125 4.17309C3.78466 3.97692 4.11252 3.9475 4.45483 4.08481L20.3724 10.9996C20.7908 11.1957 21 11.5292 21 12C21 12.4708 20.7908 12.8043 20.3724 13.0004L4.45483 19.9152Z" />
</svg>
