<svg width="24" height="24" viewBox="0 0 24 24" fill="currentColor" xmlns="http://www.w3.org/2000/svg">
<path d="M14.0621 22H10.9119C10.6863 22 10.4867 21.9211 10.3131 21.7632C10.1395 21.6053 10.0354 21.4035 10.0007 21.1579L9.68827 18.7895C9.41057 18.7018 9.1287 18.5702 8.84267 18.3947C8.55594 18.2193 8.29108 18.0351 8.04809 17.8421L5.88723 18.7895C5.6616 18.8772 5.44048 18.886 5.22387 18.8158C5.00657 18.7456 4.82849 18.6053 4.68964 18.3947L3.12757 15.6316C3.00607 15.4211 2.97136 15.1972 3.02343 14.96C3.0755 14.7235 3.18832 14.5351 3.36188 14.3947L5.2624 12.9474C5.22769 12.7895 5.20617 12.6316 5.19783 12.4737C5.18881 12.3158 5.1843 12.1579 5.1843 12C5.1843 11.8596 5.18881 11.7105 5.19783 11.5526C5.20617 11.3947 5.22769 11.2281 5.2624 11.0526L3.36188 9.60526C3.18832 9.46491 3.0755 9.27649 3.02343 9.04C2.97136 8.80281 3.00607 8.57895 3.12757 8.36842L4.68964 5.63158C4.81114 5.42105 4.9847 5.2807 5.21033 5.21053C5.43596 5.14035 5.65292 5.14912 5.86119 5.23684L8.04809 6.15789C8.29108 5.96491 8.55594 5.78526 8.84267 5.61895C9.1287 5.45193 9.41057 5.31579 9.68827 5.21053L10.0007 2.84211C10.0354 2.59649 10.1395 2.39474 10.3131 2.23684C10.4867 2.07895 10.6863 2 10.9119 2H14.0621C14.3051 2 14.5133 2.07895 14.6869 2.23684C14.8605 2.39474 14.9646 2.59649 14.9993 2.84211L15.3117 5.21053C15.6241 5.33333 15.906 5.46912 16.1573 5.61789C16.4093 5.76737 16.6655 5.94737 16.9259 6.15789L19.1388 5.23684C19.3471 5.14912 19.5599 5.14035 19.7772 5.21053C19.9938 5.2807 20.1715 5.42105 20.3104 5.63158L21.8724 8.36842C21.9939 8.57895 22.0286 8.80281 21.9766 9.04C21.9245 9.27649 21.8117 9.46491 21.6381 9.60526L19.7116 11.0789C19.7463 11.2544 19.7636 11.4123 19.7636 11.5526V12C19.7636 12.1404 19.7591 12.2849 19.7501 12.4337C19.7418 12.5832 19.7202 12.7544 19.6855 12.9474L21.5861 14.3947C21.777 14.5351 21.8985 14.7235 21.9505 14.96C22.0026 15.1972 21.9592 15.4211 21.8204 15.6316L20.2583 18.3684C20.1368 18.5789 19.9632 18.7193 19.7376 18.7895C19.512 18.8596 19.2863 18.8509 19.0607 18.7632L16.9259 17.8421C16.6655 18.0526 16.401 18.2368 16.1323 18.3947C15.863 18.5526 15.5894 18.6842 15.3117 18.7895L14.9993 21.1579C14.9646 21.4035 14.8605 21.6053 14.6869 21.7632C14.5133 21.9211 14.3051 22 14.0621 22ZM12.5 15.1579C13.3678 15.1579 14.1055 14.8509 14.7129 14.2368C15.3204 13.6228 15.6241 12.8772 15.6241 12C15.6241 11.1228 15.3204 10.3772 14.7129 9.76316C14.1055 9.14912 13.3678 8.84211 12.5 8.84211C11.6322 8.84211 10.8945 9.14912 10.2871 9.76316C9.67959 10.3772 9.37586 11.1228 9.37586 12C9.37586 12.8772 9.67959 13.6228 10.2871 14.2368C10.8945 14.8509 11.6322 15.1579 12.5 15.1579Z"/>
</svg>
