<svg width="24" height="24" viewBox="0 0 24 24" fill="currentColor" xmlns="http://www.w3.org/2000/svg">
<path d="M18.1714 22C17.3829 22 16.7143 21.7265 16.1657 21.1795C15.6171 20.6325 15.3429 19.9658 15.3429 19.1795C15.3429 19.0598 15.3514 18.9272 15.3686 18.7815C15.3857 18.6366 15.42 18.5128 15.4714 18.4103L7.86 13.9487C7.58571 14.2222 7.27714 14.4359 6.93429 14.5897C6.59143 14.7436 6.22286 14.8205 5.82857 14.8205C5.04 14.8205 4.37143 14.547 3.82286 14C3.27429 13.453 3 12.7863 3 12C3 11.2137 3.27429 10.547 3.82286 10C4.37143 9.45299 5.04 9.17949 5.82857 9.17949C6.22286 9.17949 6.59143 9.25641 6.93429 9.41026C7.27714 9.5641 7.58571 9.77778 7.86 10.0513L15.4714 5.58974C15.42 5.48718 15.3857 5.36308 15.3686 5.21744C15.3514 5.07248 15.3429 4.94017 15.3429 4.82051C15.3429 4.03419 15.6171 3.36752 16.1657 2.82051C16.7143 2.2735 17.3829 2 18.1714 2C18.96 2 19.6286 2.2735 20.1771 2.82051C20.7257 3.36752 21 4.03419 21 4.82051C21 5.60684 20.7257 6.2735 20.1771 6.82051C19.6286 7.36752 18.96 7.64103 18.1714 7.64103C17.7771 7.64103 17.4086 7.5641 17.0657 7.41026C16.7229 7.25641 16.4143 7.04274 16.14 6.76923L8.52857 11.2308C8.58 11.3333 8.61429 11.453 8.63143 11.5897C8.64857 11.7265 8.65714 11.8632 8.65714 12C8.65714 12.1197 8.64857 12.252 8.63143 12.3969C8.61429 12.5426 8.58 12.6667 8.52857 12.7692L16.14 17.2308C16.4143 16.9573 16.7229 16.7436 17.0657 16.5897C17.4086 16.4359 17.7771 16.359 18.1714 16.359C18.96 16.359 19.6286 16.6325 20.1771 17.1795C20.7257 17.7265 21 18.3932 21 19.1795C21 19.9658 20.7257 20.6325 20.1771 21.1795C19.6286 21.7265 18.96 22 18.1714 22Z"/>
</svg>
