<svg width="24" height="24" viewBox="0 0 24 24" fill="currentColor" xmlns="http://www.w3.org/2000/svg">
<path fill-rule="evenodd" clip-rule="evenodd" d="M2.7229 2.14385C2.53213 2.09408 2.32132 2.14515 2.17136 2.29737C1.94423 2.52793 1.94269 2.90324 2.16793 3.13565L4.77702 5.82784C3.53368 7.47644 2.79458 9.54005 2.79458 11.7795C2.79458 17.1805 7.09385 21.5589 12.3973 21.5589C14.551 21.5589 16.5392 20.8368 18.141 19.6174L20.2802 21.8247C20.5054 22.0571 20.8721 22.0586 21.0992 21.828C21.2735 21.6511 21.315 21.389 21.2231 21.1716L2.7229 2.14385ZM20.0107 17.7401C21.2582 16.09 22 14.023 22 11.7795C22 6.37841 17.7007 2 12.3973 2C10.2284 2 8.22744 2.73228 6.61982 3.96732L7.30233 4.6693C8.73094 3.60575 10.4921 2.97795 12.3973 2.97795C17.1704 2.97795 21.0397 6.91852 21.0397 11.7795C21.0397 13.7509 20.4033 15.5709 19.3282 17.0381L20.0107 17.7401ZM17.2665 14.9176C17.8317 14.0101 18.1589 12.9337 18.1589 11.7794C18.1589 8.53881 15.5794 5.91176 12.3973 5.91176C11.2843 5.91176 10.245 6.23316 9.36403 6.78979L17.2665 14.9176ZM12.3973 20.581C14.2878 20.581 16.0366 19.9628 17.4593 18.914L15.3995 16.7886C14.5252 17.3332 13.4972 17.6471 12.3973 17.6471C9.21524 17.6471 6.63567 15.0201 6.63567 11.7794C6.63567 10.6317 6.95923 9.56098 7.51852 8.65664L5.45871 6.53124C4.38828 7.99661 3.75485 9.8127 3.75485 11.7795C3.75485 16.6404 7.6242 20.581 12.3973 20.581Z"/>
</svg>
