<svg width="24" height="24" viewBox="0 0 24 24" fill="currentColor" xmlns="http://www.w3.org/2000/svg">
<path d="M8.425 15.575C8.575 15.725 8.75 15.8 8.95 15.8C9.15 15.8 9.325 15.725 9.475 15.575L12 13.05L14.55 15.6C14.6833 15.7333 14.85 15.8 15.05 15.8C15.25 15.8 15.425 15.725 15.575 15.575C15.725 15.425 15.8 15.25 15.8 15.05C15.8 14.85 15.725 14.675 15.575 14.525L13.05 12L15.6 9.45C15.7333 9.31667 15.8 9.15 15.8 8.95C15.8 8.75 15.725 8.575 15.575 8.425C15.425 8.275 15.25 8.2 15.05 8.2C14.85 8.2 14.675 8.275 14.525 8.425L12 10.95L9.45 8.4C9.31667 8.26667 9.15 8.2 8.95 8.2C8.75 8.2 8.575 8.275 8.425 8.425C8.275 8.575 8.2 8.75 8.2 8.95C8.2 9.15 8.275 9.325 8.425 9.475L10.95 12L8.4 14.55C8.26667 14.6833 8.2 14.85 8.2 15.05C8.2 15.25 8.275 15.425 8.425 15.575ZM3.5 20C3.1 20 2.75 19.85 2.45 19.55C2.15 19.25 2 18.9 2 18.5V5.5C2 5.1 2.15 4.75 2.45 4.45C2.75 4.15 3.1 4 3.5 4H20.5C20.9167 4 21.2708 4.15 21.5625 4.45C21.8542 4.75 22 5.1 22 5.5V18.5C22 18.9 21.8542 19.25 21.5625 19.55C21.2708 19.85 20.9167 20 20.5 20H3.5Z"/>
</svg>
