<svg width="24" height="24" viewBox="0 0 24 24" fill="currentColor" xmlns="http://www.w3.org/2000/svg">
<path d="M6.02632 13.7471L8.65789 16.3941C8.79825 16.5529 8.97825 16.6324 9.1979 16.6324C9.41684 16.6324 9.60526 16.5529 9.76316 16.3941C9.92105 16.2353 10 16.0454 10 15.8245C10 15.6042 9.92105 15.4235 9.76316 15.2824L8.39474 13.9059H15.6053L14.2368 15.2824C14.0789 15.4235 14 15.6042 14 15.8245C14 16.0454 14.0789 16.2353 14.2368 16.3941C14.3947 16.5529 14.5835 16.6324 14.8032 16.6324C15.0221 16.6324 15.2018 16.5529 15.3421 16.3941L17.9737 13.7471C18.1491 13.5706 18.2368 13.35 18.2368 13.0853C18.2368 12.8206 18.1491 12.5912 17.9737 12.3971L15.3421 9.77647C15.2018 9.61765 15.0221 9.53824 14.8032 9.53824C14.5835 9.53824 14.3947 9.61765 14.2368 9.77647C14.0789 9.93529 14 10.1206 14 10.3324C14 10.5441 14.0702 10.7294 14.2105 10.8882L15.6316 12.3176H8.36842L9.78947 10.8882C9.92982 10.7294 10 10.5441 10 10.3324C10 10.1206 9.92105 9.93529 9.76316 9.77647C9.60526 9.61765 9.41684 9.53824 9.1979 9.53824C8.97825 9.53824 8.79825 9.61765 8.65789 9.77647L6.02632 12.3971C5.85088 12.5912 5.76316 12.8206 5.76316 13.0853C5.76316 13.35 5.85088 13.5706 6.02632 13.7471ZM3.89474 21C3.36842 21 2.92105 20.8147 2.55263 20.4441C2.18421 20.0735 2 19.6235 2 19.0941V7.02353C2 6.49412 2.18421 6.04412 2.55263 5.67353C2.92105 5.30294 3.36842 5.11765 3.89474 5.11765H7.10526L8.5 3.60882C8.67544 3.41471 8.88596 3.26471 9.13158 3.15882C9.37719 3.05294 9.63158 3 9.89474 3H14.1053C14.3684 3 14.6228 3.05294 14.8684 3.15882C15.114 3.26471 15.3246 3.41471 15.5 3.60882L16.8947 5.11765H20.1053C20.6316 5.11765 21.0789 5.30294 21.4474 5.67353C21.8158 6.04412 22 6.49412 22 7.02353V19.0941C22 19.6235 21.8158 20.0735 21.4474 20.4441C21.0789 20.8147 20.6316 21 20.1053 21H3.89474Z"/>
</svg>
