<svg width="24" height="25" viewBox="0 0 24 25" fill="none" xmlns="http://www.w3.org/2000/svg">
<path d="M10.575 16.75L17.3 10.025L16.25 8.975L10.575 14.65L7.725 11.8L6.675 12.85L10.575 16.75ZM12 22C10.6833 22 9.446 21.75 8.288 21.25C7.12933 20.75 6.125 20.075 5.275 19.225C4.425 18.375 3.75 17.3707 3.25 16.212C2.75 15.054 2.5 13.8167 2.5 12.5C2.5 11.1833 2.75 9.94567 3.25 8.787C3.75 7.629 4.425 6.625 5.275 5.775C6.125 4.925 7.12933 4.25 8.288 3.75C9.446 3.25 10.6833 3 12 3C13.3167 3 14.5543 3.25 15.713 3.75C16.871 4.25 17.875 4.925 18.725 5.775C19.575 6.625 20.25 7.629 20.75 8.787C21.25 9.94567 21.5 11.1833 21.5 12.5C21.5 13.8167 21.25 15.054 20.75 16.212C20.25 17.3707 19.575 18.375 18.725 19.225C17.875 20.075 16.871 20.75 15.713 21.25C14.5543 21.75 13.3167 22 12 22Z" fill="#36B37E"/>
</svg>
