<svg width="24" height="24" viewBox="0 0 24 24" fill="currentColor" xmlns="http://www.w3.org/2000/svg">
<path d="M21.3004 16.625L17.7754 13.125V15L16.2754 13.5V6.30005C16.2754 6.21672 16.2464 6.14605 16.1884 6.08805C16.1297 6.02938 16.0504 6.00005 15.9504 6.00005H8.75039L7.25039 4.50005H15.9504C16.4671 4.50005 16.9004 4.67505 17.2504 5.02505C17.6004 5.37505 17.7754 5.80005 17.7754 6.30005V10.875L21.3004 7.37505V16.625ZM19.9754 22.15L1.52539 3.72505L2.60039 2.67505L21.0254 21.1L19.9754 22.15ZM4.45039 4.52505L5.92539 6.00005H4.57539C4.49206 6.00005 4.42139 6.02938 4.36339 6.08805C4.30472 6.14605 4.27539 6.21672 4.27539 6.30005V17.7C4.27539 17.7834 4.30472 17.8544 4.36339 17.913C4.42139 17.971 4.49206 18 4.57539 18H15.9504C16.0504 18 16.1297 17.971 16.1884 17.913C16.2464 17.8544 16.2754 17.7834 16.2754 17.7V16.35L17.7504 17.825C17.7171 18.2917 17.5297 18.6874 17.1884 19.012C16.8464 19.3374 16.4337 19.5 15.9504 19.5H4.57539C4.07539 19.5 3.65039 19.325 3.30039 18.975C2.95039 18.625 2.77539 18.2 2.77539 17.7V6.30005C2.77539 5.83338 2.93806 5.42905 3.26339 5.08705C3.58806 4.74572 3.98372 4.55838 4.45039 4.52505Z"/>
<path d="M19.95 22.1249L1.5 3.6999L2.575 2.6499L21 21.0749L19.95 22.1249Z" />
</svg>
